<svg xmlns="http://www.w3.org/2000/svg" version="1.1" xmlns:xlink="http://www.w3.org/1999/xlink" xmlns:svgjs="http://svgjs.com/svgjs" width="1440" height="560" preserveAspectRatio="none" viewBox="0 0 1440 560"><g mask="url(&quot;#SvgjsMask2044&quot;)" fill="none"><rect width="1440" height="560" x="0" y="0" fill="url(#SvgjsLinearGradient2045)"></rect><path d="M 0,79 C 96,102.6 288,205 480,197 C 672,189 768,49.4 960,39 C 1152,28.6 1344,123.8 1440,145L1440 560L0 560z" fill="rgba(18, 167, 7, 0.65)"></path><path d="M 0,376 C 72,385.4 216,425 360,423 C 504,421 576,360.6 720,366 C 864,371.4 936,441.8 1080,450 C 1224,458.2 1368,415.6 1440,407L1440 560L0 560z" fill="rgba(7, 191, 12, 0.35)"></path></g><defs><mask id="SvgjsMask2044"><rect width="1440" height="560" fill="#ffffff"></rect></mask><linearGradient x1="50%" y1="100%" x2="50%" y2="0%" gradientUnits="userSpaceOnUse" id="SvgjsLinearGradient2045"><stop stop-color="#0e2a47" offset="0"></stop><stop stop-color="rgba(36, 82, 29, 1)" offset="1"></stop></linearGradient></defs></svg>